<svg width="463" height="189" viewBox="0 0 463 189" fill="none" xmlns="http://www.w3.org/2000/svg">
<path d="M214.839 117.56C211.68 117.56 208.741 117.02 206.022 115.94C203.343 114.821 200.984 113.261 198.944 111.262C196.945 109.262 195.385 106.943 194.266 104.304C193.146 101.625 192.586 98.7455 192.586 95.6664C192.586 92.5874 193.146 89.7282 194.266 87.089C195.385 84.4099 196.945 82.0906 198.944 80.1312C200.944 78.1718 203.283 76.6522 205.962 75.5726C208.681 74.4529 211.62 73.8931 214.779 73.8931C218.138 73.8931 221.118 74.4329 223.717 75.5126C225.947 76.4252 227.935 77.6234 229.681 79.1074C230.208 79.5557 230.216 80.354 229.729 80.8457L225.223 85.3939C224.728 85.8935 223.921 85.8757 223.386 85.419C222.467 84.6346 221.418 83.9916 220.238 83.4901C218.678 82.8103 216.859 82.4705 214.779 82.4705C212.94 82.4705 211.241 82.7904 209.681 83.4302C208.161 84.03 206.842 84.9097 205.722 86.0694C204.643 87.229 203.783 88.6286 203.143 90.2681C202.543 91.9076 202.243 93.707 202.243 95.6664C202.243 97.6658 202.543 99.4853 203.143 101.125C203.783 102.764 204.643 104.164 205.722 105.323C206.842 106.483 208.161 107.383 209.681 108.023C211.241 108.662 212.94 108.982 214.779 108.982C216.939 108.982 218.818 108.642 220.418 107.963C221.613 107.455 222.686 106.801 223.636 106.003C224.166 105.557 224.958 105.545 225.447 106.035L230.002 110.589C230.5 111.087 230.485 111.902 229.942 112.349C228.141 113.831 226.126 115.028 223.897 115.94C221.297 117.02 218.278 117.56 214.839 117.56Z" fill="#034369"/>
<path d="M181.411 116.9C180.727 116.9 180.172 116.345 180.172 115.661V75.7917C180.172 75.1075 180.727 74.5529 181.411 74.5529H188.35C189.034 74.5529 189.589 75.1075 189.589 75.7917V115.661C189.589 116.345 189.034 116.9 188.35 116.9H181.411Z" fill="#034369"/>
<path d="M233.101 115.661C233.101 116.345 233.656 116.9 234.34 116.9H241.279C241.323 116.9 241.366 116.898 241.409 116.893C241.451 116.898 241.494 116.9 241.538 116.9H262.273C262.957 116.9 263.512 116.345 263.512 115.661V109.981C263.512 109.297 262.957 108.742 262.273 108.742H242.518V99.2053H260.174C260.858 99.2053 261.412 98.6507 261.412 97.9665V92.5866C261.412 91.9024 260.858 91.3477 260.174 91.3477H242.518V82.6504H261.973C262.657 82.6504 263.212 82.0957 263.212 81.4115V75.7917C263.212 75.1075 262.657 74.5529 261.973 74.5529H241.538C241.494 74.5529 241.451 74.5551 241.409 74.5595C241.366 74.5551 241.323 74.5529 241.279 74.5529H234.34C233.656 74.5529 233.101 75.1075 233.101 75.7917V115.661Z" fill="#034369"/>
<path fill-rule="evenodd" clip-rule="evenodd" d="M275.441 116.9C275.377 116.9 275.314 116.895 275.252 116.886C275.191 116.895 275.127 116.9 275.063 116.9H268.244C267.559 116.9 267.005 116.345 267.005 115.661V75.7917C267.005 75.1075 267.559 74.5529 268.244 74.5529H275.063C275.127 74.5529 275.191 74.5578 275.252 74.5672C275.314 74.5578 275.377 74.5529 275.441 74.5529H285.179C287.898 74.5529 290.198 75.0527 292.077 76.0524C293.997 77.0521 295.456 78.3917 296.456 80.0712C297.455 81.7507 297.955 83.6101 297.955 85.6495C297.955 88.2487 297.116 90.448 295.436 92.2475C294.713 93.0227 293.841 93.694 292.82 94.2614C294.251 94.9625 295.463 95.8507 296.456 96.926C298.415 99.0054 299.395 101.565 299.395 104.604C299.395 106.923 298.815 109.022 297.655 110.902C296.536 112.741 294.896 114.201 292.737 115.28C290.618 116.36 288.058 116.9 285.059 116.9H275.441ZM276.302 109.582H284.16C285.999 109.582 287.439 109.042 288.478 107.963C289.518 106.883 290.038 105.563 290.038 104.004C290.038 102.924 289.798 101.965 289.318 101.125C288.838 100.285 288.158 99.6252 287.279 99.1454C286.439 98.6655 285.399 98.4256 284.16 98.4256H276.302V109.582ZM283.38 91.2878H276.302V81.8706H283.38C284.939 81.8706 286.199 82.2705 287.159 83.0703C288.118 83.83 288.598 84.9897 288.598 86.5492C288.598 88.1487 288.118 89.3484 287.159 90.1481C286.199 90.9079 284.939 91.2878 283.38 91.2878Z" fill="#034369"/>
<path d="M302.431 115.661C302.431 116.345 302.986 116.9 303.67 116.9H310.61C310.653 116.9 310.696 116.898 310.739 116.893C310.781 116.898 310.825 116.9 310.868 116.9H331.603C332.288 116.9 332.842 116.345 332.842 115.661V109.981C332.842 109.297 332.288 108.742 331.603 108.742H311.849V99.2053H329.504C330.188 99.2053 330.743 98.6507 330.743 97.9665V92.5866C330.743 91.9024 330.188 91.3477 329.504 91.3477H311.849V82.6504H331.303C331.988 82.6504 332.542 82.0957 332.542 81.4115V75.7917C332.542 75.1075 331.988 74.5529 331.303 74.5529H310.868C310.825 74.5529 310.781 74.5551 310.739 74.5595C310.696 74.5551 310.653 74.5529 310.61 74.5529H303.67C302.986 74.5529 302.431 75.1075 302.431 75.7917V115.661Z" fill="#034369"/>
<path fill-rule="evenodd" clip-rule="evenodd" d="M345.752 115.661V99.4453H346.989C346.998 99.677 347.073 99.9106 347.224 100.119L358.997 116.387C359.23 116.709 359.603 116.9 360.001 116.9H368.019C369.045 116.9 369.627 115.724 369.004 114.909L356.959 99.1404C358.4 98.884 359.723 98.4658 360.928 97.8858C363.087 96.8461 364.767 95.4065 365.966 93.5671C367.166 91.6876 367.766 89.5083 367.766 87.0291C367.766 84.5898 367.166 82.4305 365.966 80.551C364.767 78.6716 363.107 77.2121 360.988 76.1724C358.868 75.0927 356.409 74.5529 353.61 74.5529H344.772C344.728 74.5529 344.685 74.5551 344.643 74.5595C344.6 74.5551 344.557 74.5529 344.513 74.5529H337.574C336.89 74.5529 336.335 75.1075 336.335 75.7917V115.661C336.335 116.345 336.89 116.9 337.574 116.9H344.513C345.198 116.9 345.752 116.345 345.752 115.661ZM352.47 92.4874H345.752V81.8706H352.53C354.41 81.8706 355.849 82.3705 356.849 83.3702C357.849 84.3699 358.348 85.6295 358.348 87.149C358.348 88.7885 357.829 90.0881 356.789 91.0478C355.789 92.0075 354.35 92.4874 352.47 92.4874Z" fill="#034369"/>
<path d="M382.746 115.88C385.465 117 388.364 117.56 391.443 117.56C395.642 117.56 399.341 116.68 402.54 114.921C405.779 113.161 408.298 110.562 410.097 107.123C411.937 103.644 412.856 99.3653 412.856 94.2868V94.1462C412.856 93.4619 412.302 92.9073 411.617 92.9073H391.842C391.158 92.9073 390.603 93.4619 390.603 94.1462V99.6655C390.603 100.342 391.146 100.893 391.822 100.904L402.769 101.078C402.536 101.959 402.219 102.775 401.82 103.524C400.9 105.283 399.56 106.643 397.801 107.603C396.081 108.523 393.982 108.982 391.503 108.982C389.064 108.982 386.904 108.423 385.025 107.303C383.145 106.183 381.666 104.624 380.586 102.624C379.507 100.625 378.967 98.3056 378.967 95.6664C378.967 93.0272 379.507 90.7279 380.586 88.7685C381.706 86.7691 383.245 85.2296 385.205 84.1499C387.164 83.0303 389.384 82.4705 391.863 82.4705C394.182 82.4705 396.261 82.9103 398.101 83.79C399.545 84.4807 400.841 85.4424 401.989 86.6752C402.498 87.2216 403.367 87.2814 403.895 86.7533L408.512 82.1362C408.967 81.6809 409.001 80.9494 408.557 80.483C406.729 78.5637 404.503 77.0268 401.88 75.8725C398.921 74.5529 395.622 73.8931 391.983 73.8931C388.824 73.8931 385.865 74.4529 383.105 75.5726C380.346 76.6522 377.927 78.1918 375.848 80.1911C373.808 82.1505 372.209 84.4498 371.049 87.089C369.889 89.7282 369.31 92.5874 369.31 95.6664C369.31 98.7455 369.869 101.625 370.989 104.304C372.149 106.943 373.728 109.262 375.728 111.262C377.727 113.221 380.066 114.761 382.746 115.88Z" fill="#034369"/>
<path d="M56.2723 59.4689C50.9668 66.2153 50.9668 76.0898 50.9668 95.8387C50.9668 115.588 50.9668 125.462 56.2723 132.209C57.4898 133.757 58.8875 135.154 60.4357 136.372C61.0282 136.838 61.6449 137.263 62.2903 137.651L88.4058 79.9932C89.5411 77.4866 92.4165 76.2787 95.0013 77.2223L111.597 83.281C113.165 83.8533 114.368 85.1356 114.839 86.7365L130.038 138.354C131.162 137.793 132.201 137.138 133.175 136.372C134.724 135.154 136.121 133.757 137.339 132.209C142.644 125.462 142.644 115.588 142.644 95.8387C142.644 76.0898 142.644 66.2153 137.339 59.4689C136.121 57.9207 134.724 56.523 133.175 55.3055C126.429 50 116.554 50 96.8055 50C77.0566 50 67.1821 50 60.4357 55.3055C58.8875 56.523 57.4898 57.9207 56.2723 59.4689Z" fill="url(#paint0_linear_5_1238)"/>
<defs>
<linearGradient id="paint0_linear_5_1238" x1="96.8055" y1="25.8418" x2="96.8055" y2="178.844" gradientUnits="userSpaceOnUse">
<stop stop-color="#0BF7FE"/>
<stop offset="1" stop-color="#38C6FB"/>
</linearGradient>
</defs>
</svg>
